<?xml version="1.0" encoding="utf-8"?>
<svg viewBox="0 0 456 456" width="456px" height="456px" style="fill-rule:evenodd;clip-rule:evenodd;stroke-linejoin:round;stroke-miterlimit:2;" xmlns="http://www.w3.org/2000/svg">
  <path d="M 0.767 0 L 0.767 -7.445 L 5.87 -7.445 L 5.87 -6.185 L 2.27 -6.185 L 2.27 -4.423 L 5.378 -4.423 L 5.378 -3.164 L 2.27 -3.164 L 2.27 0 Z M 0.376 -2.422 L 1.838 -2.564 Q 1.97 -1.828 2.374 -1.483 Q 2.778 -1.137 3.463 -1.137 Q 4.189 -1.137 4.558 -1.445 Q 4.926 -1.752 4.926 -2.163 Q 4.926 -2.427 4.771 -2.613 Q 4.616 -2.798 4.23 -2.935 Q 3.966 -3.027 3.027 -3.26 Q 1.818 -3.56 1.33 -3.996 Q 0.645 -4.611 0.645 -5.495 Q 0.645 -6.063 0.967 -6.558 Q 1.29 -7.054 1.897 -7.312 Q 2.504 -7.571 3.362 -7.571 Q 4.763 -7.571 5.472 -6.957 Q 6.18 -6.343 6.216 -5.317 L 4.712 -5.251 Q 4.616 -5.825 4.299 -6.076 Q 3.981 -6.327 3.346 -6.327 Q 2.691 -6.327 2.321 -6.058 Q 2.082 -5.886 2.082 -5.596 Q 2.082 -5.332 2.305 -5.144 Q 2.59 -4.905 3.687 -4.646 Q 4.784 -4.387 5.309 -4.111 Q 5.835 -3.834 6.132 -3.354 Q 6.429 -2.874 6.429 -2.168 Q 6.429 -1.529 6.073 -0.97 Q 5.718 -0.411 5.068 -0.14 Q 4.418 0.132 3.448 0.132 Q 2.036 0.132 1.28 -0.521 Q 0.523 -1.173 0.376 -2.422 Z M 0.391 -1.975 L 1.772 -2.143 Q 1.838 -1.615 2.128 -1.336 Q 2.417 -1.056 2.829 -1.056 Q 3.27 -1.056 3.572 -1.391 Q 3.875 -1.727 3.875 -2.295 Q 3.875 -2.834 3.585 -3.148 Q 3.296 -3.463 2.879 -3.463 Q 2.605 -3.463 2.224 -3.357 L 2.382 -4.52 Q 2.961 -4.504 3.265 -4.771 Q 3.57 -5.037 3.57 -5.479 Q 3.57 -5.855 3.346 -6.079 Q 3.123 -6.302 2.752 -6.302 Q 2.387 -6.302 2.128 -6.048 Q 1.869 -5.794 1.813 -5.307 L 0.498 -5.53 Q 0.635 -6.205 0.912 -6.609 Q 1.188 -7.013 1.683 -7.244 Q 2.179 -7.475 2.793 -7.475 Q 3.844 -7.475 4.479 -6.805 Q 5.002 -6.256 5.002 -5.566 Q 5.002 -4.586 3.93 -4.002 Q 4.57 -3.864 4.954 -3.387 Q 5.337 -2.91 5.337 -2.234 Q 5.337 -1.254 4.621 -0.564 Q 3.905 0.127 2.839 0.127 Q 1.828 0.127 1.163 -0.454 Q 0.498 -1.036 0.391 -1.975 Z M 0.752 -7.445 L 3.499 -7.445 Q 4.428 -7.445 4.916 -7.302 Q 5.571 -7.109 6.038 -6.617 Q 6.505 -6.124 6.749 -5.411 Q 6.993 -4.697 6.993 -3.651 Q 6.993 -2.732 6.764 -2.067 Q 6.485 -1.254 5.967 -0.752 Q 5.576 -0.371 4.911 -0.157 Q 4.413 0 3.58 0 L 0.752 0 Z M 2.255 -6.185 L 2.255 -1.254 L 3.377 -1.254 Q 4.007 -1.254 4.286 -1.325 Q 4.652 -1.417 4.893 -1.635 Q 5.134 -1.854 5.286 -2.354 Q 5.439 -2.854 5.439 -3.717 Q 5.439 -4.58 5.286 -5.043 Q 5.134 -5.505 4.86 -5.764 Q 4.586 -6.023 4.164 -6.114 Q 3.849 -6.185 2.93 -6.185 Z" style="fill: rgb(51, 51, 51);"/>
  <path style="fill: rgb(51, 51, 51);"/>
  <path d="M 0.736 0 L 0.736 -7.445 L 2.986 -7.445 L 4.337 -2.366 L 5.672 -7.445 L 7.927 -7.445 L 7.927 0 L 6.53 0 L 6.53 -5.86 L 5.053 0 L 3.605 0 L 2.133 -5.86 L 2.133 0 Z M 0.416 -2.773 Q 0.416 -3.484 0.767 -4.149 Q 1.117 -4.814 1.76 -5.164 Q 2.402 -5.515 3.194 -5.515 Q 4.418 -5.515 5.2 -4.72 Q 5.982 -3.925 5.982 -2.712 Q 5.982 -1.488 5.192 -0.683 Q 4.403 0.122 3.204 0.122 Q 2.463 0.122 1.79 -0.213 Q 1.117 -0.548 0.767 -1.196 Q 0.416 -1.843 0.416 -2.773 Z M 1.879 -2.696 Q 1.879 -1.894 2.26 -1.468 Q 2.641 -1.041 3.199 -1.041 Q 3.758 -1.041 4.136 -1.468 Q 4.514 -1.894 4.514 -2.707 Q 4.514 -3.499 4.136 -3.925 Q 3.758 -4.352 3.199 -4.352 Q 2.641 -4.352 2.26 -3.925 Q 1.879 -3.499 1.879 -2.696 Z M 0.686 0 L 0.686 -7.445 L 2.112 -7.445 L 2.112 -4.763 Q 2.773 -5.515 3.677 -5.515 Q 4.662 -5.515 5.307 -4.801 Q 5.952 -4.088 5.952 -2.752 Q 5.952 -1.371 5.294 -0.625 Q 4.636 0.122 3.697 0.122 Q 3.235 0.122 2.785 -0.109 Q 2.336 -0.34 2.011 -0.792 L 2.011 0 Z M 2.102 -2.813 Q 2.102 -1.975 2.366 -1.574 Q 2.737 -1.005 3.352 -1.005 Q 3.824 -1.005 4.156 -1.409 Q 4.489 -1.813 4.489 -2.681 Q 4.489 -3.605 4.154 -4.014 Q 3.819 -4.423 3.296 -4.423 Q 2.783 -4.423 2.443 -4.024 Q 2.102 -3.626 2.102 -2.813 Z M 0.746 -6.124 L 0.746 -7.445 L 2.173 -7.445 L 2.173 -6.124 Z M 0.746 0 L 0.746 -5.393 L 2.173 -5.393 L 2.173 0 Z M 0.746 0 L 0.746 -7.445 L 2.173 -7.445 L 2.173 0 Z M 3.87 -1.716 L 5.291 -1.478 Q 5.017 -0.696 4.426 -0.287 Q 3.834 0.122 2.945 0.122 Q 1.539 0.122 0.863 -0.797 Q 0.33 -1.534 0.33 -2.656 Q 0.33 -3.996 1.031 -4.756 Q 1.732 -5.515 2.803 -5.515 Q 4.007 -5.515 4.702 -4.72 Q 5.398 -3.925 5.368 -2.285 L 1.793 -2.285 Q 1.808 -1.65 2.138 -1.297 Q 2.468 -0.945 2.961 -0.945 Q 3.296 -0.945 3.524 -1.127 Q 3.753 -1.31 3.87 -1.716 Z M 3.951 -3.159 Q 3.936 -3.778 3.631 -4.101 Q 3.326 -4.423 2.889 -4.423 Q 2.422 -4.423 2.118 -4.083 Q 1.813 -3.743 1.818 -3.159 Z" style="fill: rgb(51, 51, 51);"/>
  <path d="M 113.198 214.649 L 113.198 147.278 L 159.383 147.278 L 159.383 158.675 L 126.8 158.675 L 126.8 174.622 L 154.925 174.622 L 154.925 186.019 L 126.8 186.019 L 126.8 214.649 L 113.198 214.649 Z M 167.146 192.728 L 180.382 191.442 C 181.178 195.884 182.794 199.146 185.23 201.23 C 187.666 203.314 190.951 204.355 195.087 204.355 C 199.469 204.355 202.77 203.428 204.991 201.575 C 207.212 199.721 208.323 197.554 208.323 195.072 C 208.323 193.479 207.856 192.123 206.921 191.005 C 205.987 189.887 204.356 188.914 202.027 188.087 C 200.434 187.535 196.803 186.555 191.135 185.145 C 183.844 183.337 178.727 181.116 175.786 178.481 C 171.65 174.775 169.582 170.256 169.582 164.925 C 169.582 161.493 170.555 158.284 172.5 155.297 C 174.445 152.31 177.249 150.035 180.91 148.472 C 184.571 146.91 188.991 146.129 194.169 146.129 C 202.624 146.129 208.989 147.982 213.263 151.69 C 217.537 155.397 219.781 160.345 219.996 166.533 L 206.392 167.13 C 205.811 163.669 204.562 161.179 202.647 159.662 C 200.733 158.146 197.86 157.388 194.03 157.388 C 190.078 157.388 186.984 158.2 184.748 159.823 C 183.308 160.865 182.588 162.259 182.588 164.006 C 182.588 165.599 183.262 166.962 184.61 168.096 C 186.325 169.536 190.492 171.037 197.11 172.599 C 203.728 174.162 208.622 175.778 211.793 177.448 C 214.964 179.117 217.446 181.4 219.238 184.295 C 221.03 187.191 221.926 190.768 221.926 195.026 C 221.926 198.886 220.854 202.501 218.709 205.871 C 216.565 209.242 213.531 211.746 209.61 213.385 C 205.688 215.024 200.802 215.844 194.95 215.844 C 186.432 215.844 179.891 213.876 175.326 209.939 C 170.762 206.002 168.035 200.265 167.146 192.728 Z M 230.061 196.772 L 242.561 195.255 C 242.959 198.442 244.032 200.878 245.778 202.562 C 247.524 204.248 249.638 205.09 252.12 205.09 C 254.785 205.09 257.029 204.08 258.852 202.058 C 260.675 200.035 261.587 197.308 261.587 193.877 C 261.587 190.629 260.714 188.056 258.967 186.156 C 257.221 184.257 255.092 183.307 252.58 183.307 C 250.925 183.307 248.949 183.629 246.651 184.272 L 248.076 173.748 C 251.568 173.84 254.234 173.082 256.072 171.473 C 257.91 169.865 258.83 167.728 258.83 165.062 C 258.83 162.795 258.155 160.988 256.807 159.64 C 255.459 158.292 253.667 157.618 251.431 157.618 C 249.225 157.618 247.341 158.383 245.778 159.915 C 244.215 161.447 243.266 163.684 242.929 166.625 L 231.026 164.603 C 231.853 160.528 233.101 157.273 234.771 154.838 C 236.441 152.402 238.769 150.487 241.757 149.092 C 244.744 147.699 248.091 147.002 251.798 147.002 C 258.14 147.002 263.226 149.024 267.056 153.068 C 270.211 156.377 271.789 160.115 271.789 164.281 C 271.789 170.194 268.557 174.912 262.093 178.436 C 265.953 179.263 269.039 181.117 271.353 183.996 C 273.666 186.876 274.822 190.354 274.822 194.429 C 274.822 200.342 272.662 205.382 268.343 209.548 C 264.022 213.715 258.645 215.798 252.212 215.798 C 246.115 215.798 241.06 214.044 237.046 210.536 C 233.033 207.028 230.704 202.44 230.061 196.772 Z M 285.666 147.278 L 310.529 147.278 C 316.136 147.278 320.41 147.707 323.351 148.564 C 327.303 149.728 330.688 151.796 333.507 154.768 C 336.326 157.74 338.47 161.378 339.941 165.683 C 341.411 169.987 342.147 175.295 342.147 181.607 C 342.147 187.152 341.458 191.932 340.079 195.945 C 338.394 200.847 335.989 204.815 332.864 207.848 C 330.505 210.146 327.318 211.938 323.305 213.224 C 320.303 214.174 316.289 214.649 311.264 214.649 L 285.666 214.649 L 285.666 147.278 Z M 299.27 158.675 L 299.27 203.298 L 309.426 203.298 C 313.225 203.298 315.967 203.084 317.653 202.655 C 319.858 202.103 321.689 201.169 323.144 199.852 C 324.599 198.534 325.787 196.366 326.706 193.348 C 327.625 190.331 328.084 186.218 328.084 181.009 C 328.084 175.801 327.625 171.803 326.706 169.015 C 325.787 166.227 324.5 164.052 322.846 162.489 C 321.191 160.927 319.092 159.87 316.55 159.318 C 314.65 158.889 310.928 158.675 305.382 158.675 L 299.27 158.675 Z" style="fill: rgb(255, 255, 255);"/>
  <path transform="matrix(1.0640690326690674, 0, 0, 1.0640690326690674, 120.74612426757814, 128.31114196777344)" style="fill: rgb(51, 51, 51);"/>
  <path d="M 84.199 308.768 L 84.199 241.396 L 104.557 241.396 L 116.782 287.352 L 128.868 241.396 L 149.273 241.396 L 149.273 308.768 L 136.635 308.768 L 136.635 255.734 L 123.261 308.768 L 110.164 308.768 L 96.837 255.734 L 96.837 308.768 L 84.199 308.768 Z M 159.701 283.675 C 159.701 279.386 160.758 275.235 162.873 271.221 C 164.986 267.208 167.981 264.144 171.857 262.03 C 175.732 259.916 180.06 258.859 184.839 258.859 C 192.223 258.859 198.274 261.256 202.992 266.051 C 207.71 270.846 210.069 276.905 210.069 284.227 C 210.069 291.611 207.687 297.73 202.923 302.586 C 198.159 307.442 192.161 309.87 184.931 309.87 C 180.458 309.87 176.192 308.86 172.133 306.838 C 168.073 304.815 164.986 301.851 162.873 297.945 C 160.758 294.038 159.701 289.282 159.701 283.675 Z M 172.937 284.364 C 172.937 289.205 174.086 292.912 176.384 295.486 C 178.681 298.06 181.515 299.346 184.885 299.346 C 188.255 299.346 191.082 298.06 193.365 295.486 C 195.647 292.912 196.788 289.175 196.788 284.273 C 196.788 279.493 195.647 275.817 193.365 273.244 C 191.082 270.67 188.255 269.383 184.885 269.383 C 181.515 269.383 178.681 270.67 176.384 273.244 C 174.086 275.817 172.937 279.524 172.937 284.364 Z M 219.629 308.768 L 219.629 241.396 L 232.543 241.396 L 232.543 265.661 C 236.526 261.126 241.244 258.859 246.697 258.859 C 252.641 258.859 257.558 261.011 261.449 265.316 C 265.34 269.621 267.285 275.802 267.285 283.86 C 267.285 292.193 265.302 298.611 261.334 303.115 C 257.367 307.619 252.549 309.87 246.881 309.87 C 244.093 309.87 241.343 309.174 238.631 307.78 C 235.92 306.386 233.584 304.325 231.623 301.598 L 231.623 308.768 L 219.629 308.768 Z M 232.451 283.308 C 232.451 288.363 233.247 292.101 234.84 294.521 C 237.077 297.953 240.049 299.668 243.756 299.668 C 246.605 299.668 249.033 298.451 251.04 296.015 C 253.047 293.579 254.05 289.742 254.05 284.503 C 254.05 278.927 253.039 274.906 251.017 272.439 C 248.995 269.973 246.406 268.74 243.25 268.74 C 240.156 268.74 237.582 269.942 235.529 272.347 C 233.477 274.752 232.451 278.406 232.451 283.308 Z M 277.673 253.344 L 277.673 241.396 L 290.586 241.396 L 290.586 253.344 L 277.673 253.344 Z M 277.673 308.768 L 277.673 259.962 L 290.586 259.962 L 290.586 308.768 L 277.673 308.768 Z M 303.82 308.768 L 303.82 241.396 L 316.734 241.396 L 316.734 308.768 L 303.82 308.768 Z M 358.232 293.234 L 371.099 295.394 C 369.445 300.113 366.833 303.705 363.264 306.171 C 359.695 308.637 355.229 309.87 349.868 309.87 C 341.381 309.87 335.1 307.098 331.026 301.552 C 327.809 297.11 326.2 291.503 326.2 284.732 C 326.2 276.644 328.314 270.31 332.542 265.73 C 336.77 261.149 342.117 258.859 348.581 258.859 C 355.842 258.859 361.571 261.256 365.769 266.051 C 369.966 270.846 371.973 278.192 371.789 288.087 L 339.436 288.087 C 339.528 291.917 340.569 294.896 342.561 297.026 C 344.552 299.155 347.033 300.22 350.005 300.22 C 352.028 300.22 353.728 299.668 355.107 298.565 C 356.485 297.462 357.527 295.685 358.232 293.234 Z M 358.967 280.183 C 358.875 276.445 357.91 273.603 356.072 271.658 C 354.233 269.713 351.997 268.74 349.362 268.74 C 346.544 268.74 344.215 269.766 342.377 271.819 C 340.539 273.872 339.635 276.66 339.665 280.183 L 358.967 280.183 Z" style="fill: rgb(255, 255, 255);"/>
</svg>